<?xml version="1.0" encoding="utf-8"?>
<svg width="416" height="212" viewBox="0 0 416 212" xmlns="http://www.w3.org/2000/svg">
  <defs>
    <clipPath id="clip-logo">
      <rect width="416" height="212"/>
    </clipPath>
  </defs>
  <g id="logo" clip-path="url(#clip-logo)">
    <rect width="421.084" height="212" fill-opacity="0" style=""/>
    <text id="Ney" transform="translate(0 5)" fill="#fff" font-size="189" font-family="MonotypeCorsiva, Monotype Corsiva" style="white-space: pre;"><tspan x="0" y="151">N</tspan><tspan y="151" font-family="FrankRuehlCLM-MediumOblique, Frank Ruehl CLM MediumOblique" font-weight="500" font-style="oblique">ey</tspan></text>
    <path id="Path_3" data-name="Path 3" d="M 344.898 28.324 L 344.898 196 C 344.898 203.195 339.325 209.027 332.45 209.027 C 325.575 209.027 302.59 196.195 302.59 189 C 302.59 189 318.274 214.928 326.082 166.363 C 333.89 117.799 320.001 19.326 320.001 19.326 C 320.001 16.583 340.782 7.577 375.531 3.36 Z" fill="#5cdb95" style="" transform="matrix(0.866025, 0.5, -0.5, 0.866025, 98.522283, -155.303057)"/>
    <path id="Path_4" data-name="Path 4" d="M 347.331 20.597 C 354.075 20.597 359.416 10.268 367.816 -2.112 L 358.881 171.98 C 358.881 178.478 354.094 222.408 347.349 222.408 C 340.604 222.408 334.417 176.237 334.417 169.738 L 323.994 -2.807 C 323.994 -9.311 340.585 20.597 347.331 20.597 Z" fill="#ff8000" style="" transform="matrix(0.850254, -0.526372, 0.526372, 0.850254, -5.754583, 198.447532)"/>
  </g>
</svg>